<svg xmlns="http://www.w3.org/2000/svg" width="20" height="16" viewBox="0 0 20 16"><defs><style>.a{fill:#ee4323;}</style></defs><path class="a" d="M759.665,293.676l2.5,5,4.191,0c.87,0,1.3.312,1.3.833,0,.332-1.7,1.866-2.318,2.687-1.069,1.429-.577,1.732.331,3.477.954,1.834,2,4,2,4s3.067-3.694,5.023-6.018c1.4-1.667,1.583-1.982,3-1.982h3.981l-1.949-3.582a2.978,2.978,0,0,0-.783-.968,2.116,2.116,0,0,0-1.243-.449h-2.3c-.591,0-.515-.085-2.41-2.242a1.667,1.667,0,0,0-1.3-.759Z" transform="translate(-759.665 -293.676)"/></svg>